<svg width="167" height="101" viewBox="0 0 167 101" fill="none" xmlns="http://www.w3.org/2000/svg">
<g filter="url(#filter0_d_36_4)">
<path d="M23.0504 12.5491C22.7323 7.92558 26.3971 4 31.0315 4H139C143.418 4 147 7.58172 147 12V76.7731C147 81.1914 143.418 84.7731 139 84.7731H39.6235C38.6302 84.7731 37.6455 84.9581 36.7199 85.3187L26.7281 89.2107C23.3103 90.542 20.0524 86.9548 21.7056 83.6806L26.2054 74.7688C26.8538 73.4846 27.144 72.0492 27.0452 70.6139L23.0504 12.5491Z" fill="white"/>
<path d="M23.0504 12.5491C22.7323 7.92558 26.3971 4 31.0315 4H139C143.418 4 147 7.58172 147 12V76.7731C147 81.1914 143.418 84.7731 139 84.7731H39.6235C38.6302 84.7731 37.6455 84.9581 36.7199 85.3187L26.7281 89.2107C23.3103 90.542 20.0524 86.9548 21.7056 83.6806L26.2054 74.7688C26.8538 73.4846 27.144 72.0492 27.0452 70.6139L23.0504 12.5491Z" stroke="#FF6500" stroke-width="7"/>
</g>
<g filter="url(#filter1_d_36_4)">
<path d="M56.5302 68.369V72.473C56.5302 72.9227 56.6474 73.2678 56.8817 73.5085C57.1161 73.7428 57.4454 73.86 57.8697 73.86C58.3004 73.86 58.6329 73.7428 58.8672 73.5085C59.1016 73.2678 59.2187 72.9227 59.2187 72.473V68.369H60.5582V72.4635C60.5582 73.0272 60.4347 73.5053 60.1877 73.898C59.9471 74.2843 59.6209 74.5757 59.2092 74.772C58.8039 74.9683 58.3511 75.0665 57.8507 75.0665C57.3567 75.0665 56.9071 74.9683 56.5017 74.772C56.1027 74.5757 55.7861 74.2843 55.5517 73.898C55.3174 73.5053 55.2002 73.0272 55.2002 72.4635V68.369H56.5302ZM63.1732 68.369V75H61.8432V68.369H63.1732ZM68.0498 66.0035L65.4848 76.7195H64.1833L66.7483 66.0035H68.0498ZM70.4184 68.369V72.473C70.4184 72.9227 70.5356 73.2678 70.7699 73.5085C71.0042 73.7428 71.3336 73.86 71.7579 73.86C72.1886 73.86 72.5211 73.7428 72.7554 73.5085C72.9897 73.2678 73.1069 72.9227 73.1069 72.473V68.369H74.4464V72.4635C74.4464 73.0272 74.3229 73.5053 74.0759 73.898C73.8352 74.2843 73.5091 74.5757 73.0974 74.772C72.6921 74.9683 72.2392 75.0665 71.7389 75.0665C71.2449 75.0665 70.7952 74.9683 70.3899 74.772C69.9909 74.5757 69.6742 74.2843 69.4399 73.898C69.2056 73.5053 69.0884 73.0272 69.0884 72.4635V68.369H70.4184ZM79.7024 75L78.2679 72.7675L76.9664 75H75.4654L77.5554 71.656L75.4369 68.369H76.9664L78.4009 70.592L79.6929 68.369H81.1939L79.1134 71.7035L81.2319 75H79.7024ZM89.3433 70.421C89.3433 70.7757 89.2578 71.1082 89.0868 71.4185C88.9221 71.7288 88.6593 71.979 88.2983 72.169C87.9436 72.359 87.494 72.454 86.9493 72.454H85.8378V75H84.5078V68.369H86.9493C87.4623 68.369 87.8993 68.4577 88.2603 68.635C88.6213 68.8123 88.8905 69.0562 89.0678 69.3665C89.2515 69.6768 89.3433 70.0283 89.3433 70.421ZM86.8923 71.3805C87.2596 71.3805 87.532 71.2982 87.7093 71.1335C87.8866 70.9625 87.9753 70.725 87.9753 70.421C87.9753 69.775 87.6143 69.452 86.8923 69.452H85.8378V71.3805H86.8923ZM91.6176 70.554C91.7886 70.2753 92.0102 70.0568 92.2826 69.8985C92.5612 69.7402 92.8779 69.661 93.2326 69.661V71.0575H92.8811C92.4631 71.0575 92.1464 71.1557 91.9311 71.352C91.7221 71.5483 91.6176 71.8903 91.6176 72.378V75H90.2876V69.737H91.6176V70.554ZM96.4654 75.0855C95.9587 75.0855 95.5027 74.9747 95.0974 74.753C94.6921 74.525 94.3722 74.2052 94.1379 73.7935C93.9099 73.3818 93.7959 72.9068 93.7959 72.3685C93.7959 71.8302 93.9131 71.3552 94.1474 70.9435C94.3881 70.5318 94.7142 70.2152 95.1259 69.9935C95.5376 69.7655 95.9967 69.6515 96.5034 69.6515C97.0101 69.6515 97.4692 69.7655 97.8809 69.9935C98.2926 70.2152 98.6156 70.5318 98.8499 70.9435C99.0906 71.3552 99.2109 71.8302 99.2109 72.3685C99.2109 72.9068 99.0874 73.3818 98.8404 73.7935C98.5997 74.2052 98.2704 74.525 97.8524 74.753C97.4407 74.9747 96.9784 75.0855 96.4654 75.0855ZM96.4654 73.9265C96.7061 73.9265 96.9309 73.8695 97.1399 73.7555C97.3552 73.6352 97.5262 73.4578 97.6529 73.2235C97.7796 72.9892 97.8429 72.7042 97.8429 72.3685C97.8429 71.8682 97.7099 71.485 97.4439 71.219C97.1842 70.9467 96.8644 70.8105 96.4844 70.8105C96.1044 70.8105 95.7846 70.9467 95.5249 71.219C95.2716 71.485 95.1449 71.8682 95.1449 72.3685C95.1449 72.8688 95.2684 73.2552 95.5154 73.5275C95.7687 73.7935 96.0854 73.9265 96.4654 73.9265ZM100.861 69.11C100.62 69.11 100.421 69.0372 100.263 68.8915C100.111 68.7395 100.035 68.5527 100.035 68.331C100.035 68.1093 100.111 67.9257 100.263 67.78C100.421 67.628 100.62 67.552 100.861 67.552C101.095 67.552 101.289 67.628 101.441 67.78C101.593 67.9257 101.669 68.1093 101.669 68.331C101.669 68.5527 101.593 68.7395 101.441 68.8915C101.289 69.0372 101.095 69.11 100.861 69.11ZM101.517 75.8645C101.517 76.4472 101.371 76.8652 101.08 77.1185C100.795 77.3782 100.383 77.508 99.8445 77.508H99.2555V76.3775H99.6355C99.8382 76.3775 99.9807 76.3363 100.063 76.254C100.145 76.178 100.187 76.0513 100.187 75.874V69.737H101.517V75.8645ZM107.723 72.2545C107.723 72.4445 107.71 72.6155 107.685 72.7675H103.838C103.869 73.1475 104.002 73.4452 104.237 73.6605C104.471 73.8758 104.759 73.9835 105.101 73.9835C105.595 73.9835 105.947 73.7713 106.156 73.347H107.59C107.438 73.8537 107.147 74.2717 106.716 74.601C106.285 74.924 105.757 75.0855 105.13 75.0855C104.623 75.0855 104.167 74.9747 103.762 74.753C103.363 74.525 103.049 74.2052 102.821 73.7935C102.599 73.3818 102.489 72.9068 102.489 72.3685C102.489 71.8238 102.599 71.3457 102.821 70.934C103.043 70.5223 103.353 70.2057 103.752 69.984C104.151 69.7623 104.61 69.6515 105.13 69.6515C105.63 69.6515 106.076 69.7592 106.469 69.9745C106.868 70.1898 107.175 70.497 107.391 70.896C107.612 71.2887 107.723 71.7415 107.723 72.2545ZM106.346 71.8745C106.339 71.5325 106.216 71.2602 105.975 71.0575C105.734 70.8485 105.44 70.744 105.092 70.744C104.762 70.744 104.484 70.8453 104.256 71.048C104.034 71.2443 103.898 71.5198 103.847 71.8745H106.346ZM108.352 72.3685C108.352 71.8238 108.463 71.3488 108.684 70.9435C108.906 70.5318 109.213 70.2152 109.606 69.9935C109.998 69.7655 110.448 69.6515 110.955 69.6515C111.607 69.6515 112.145 69.8162 112.57 70.1455C113 70.4685 113.289 70.9245 113.434 71.5135H112C111.924 71.2855 111.794 71.1082 111.61 70.9815C111.433 70.8485 111.211 70.782 110.945 70.782C110.565 70.782 110.264 70.9213 110.043 71.2C109.821 71.4723 109.71 71.8618 109.71 72.3685C109.71 72.8688 109.821 73.2583 110.043 73.537C110.264 73.8093 110.565 73.9455 110.945 73.9455C111.484 73.9455 111.835 73.7048 112 73.2235H113.434C113.289 73.7935 113 74.2463 112.57 74.582C112.139 74.9177 111.601 75.0855 110.955 75.0855C110.448 75.0855 109.998 74.9747 109.606 74.753C109.213 74.525 108.906 74.2083 108.684 73.803C108.463 73.3913 108.352 72.9132 108.352 72.3685ZM115.957 70.8295V73.3755C115.957 73.5528 115.998 73.6827 116.081 73.765C116.169 73.841 116.315 73.879 116.518 73.879H117.135V75H116.299C115.178 75 114.618 74.4553 114.618 73.366V70.8295H113.991V69.737H114.618V68.4355H115.957V69.737H117.135V70.8295H115.957Z" fill="black" fill-opacity="0.5" shape-rendering="crispEdges"/>
</g>
<g filter="url(#filter2_d_36_4)">
<path d="M113.182 44.08H106.222V51.2H99.7419V44.08H92.7819V37.96H99.7419V30.8H106.222V37.96H113.182V44.08ZM116.619 32.16V25.8H127.699V55H120.579V32.16H116.619Z" fill="black"/>
</g>
<g clip-path="url(#clip0_36_4)">
<path fill-rule="evenodd" clip-rule="evenodd" d="M38.1823 21H78.8177C80.5695 21 82 22.4489 82 24.2231V54.7769C82 56.5473 80.5695 58 78.8177 58H38.1823C36.4305 58 35 56.5511 35 54.7769V24.2231C35 22.4489 36.4305 21 38.1823 21ZM39.8193 31.4403H76.8326V47.3544H39.8193V31.4403ZM47.3199 35.9805H49.6072V40.7997C49.6072 41.2762 49.5383 41.7295 49.4006 42.1517C49.2629 42.5778 49.0487 42.9497 48.7581 43.2674C48.4674 43.5851 48.1614 43.8098 47.8401 43.9376C47.3964 44.1158 46.8609 44.2088 46.2375 44.2088C45.8779 44.2088 45.484 44.1817 45.0556 44.1274C44.631 44.0732 44.2715 43.9647 43.9846 43.7981C43.6978 43.6354 43.4377 43.403 43.2005 43.1008C42.9634 42.7987 42.7989 42.4887 42.7109 42.1672C42.5694 41.652 42.4967 41.1987 42.4967 40.7997V35.9805H44.784V40.9159C44.784 41.3576 44.8949 41.7023 45.1206 41.9464C45.3463 42.1943 45.6561 42.3183 46.0539 42.3183C46.444 42.3183 46.7538 42.1943 46.9795 41.9503C47.2013 41.7062 47.3161 41.3614 47.3161 40.9121V35.9805H47.3199ZM51.2136 35.9805H53.5124V44.0732H51.2136V35.9805ZM56.2625 35.8449H57.3028L55.4325 44.2088H54.3921L56.2625 35.8449ZM62.8527 35.9805H65.14V40.7997C65.14 41.2762 65.0711 41.7295 64.9334 42.1517C64.7957 42.5778 64.5815 42.9497 64.2909 43.2674C64.0002 43.5851 63.6942 43.8098 63.3729 43.9376C62.9292 44.1158 62.3937 44.2088 61.7703 44.2088C61.4107 44.2088 61.0168 44.1817 60.5884 44.1274C60.1638 44.0732 59.8043 43.9647 59.5174 43.7981C59.2306 43.6354 58.9705 43.403 58.7333 43.1008C58.4962 42.7987 58.3317 42.4887 58.2437 42.1672C58.1022 41.652 58.0334 41.1987 58.0334 40.7997V35.9805H60.3206V40.9159C60.3206 41.3576 60.4316 41.7023 60.6572 41.9464C60.8829 42.1943 61.1927 42.3183 61.5905 42.3183C61.9806 42.3183 62.2904 42.1943 62.5161 41.9503C62.738 41.7062 62.8527 41.3614 62.8527 40.9121V35.9805ZM66.1459 35.9805H68.6742L69.9861 38.4715L71.2598 35.9805H73.7536L71.451 39.901L73.9716 44.0732H71.3936L69.9402 41.4738L68.4753 44.0732H65.9164L68.4714 39.8545L66.1459 35.9805ZM60.5769 53.4171C59.8961 53.4171 59.3453 52.8089 59.3453 52.0612C59.3453 51.3097 59.8961 50.7054 60.5769 50.7054H75.7425C76.4233 50.7054 76.9741 51.3136 76.9741 52.0612C76.9741 52.8128 76.4233 53.4171 75.7425 53.4171H60.5769ZM40.722 53.4171C40.0488 53.4171 39.5019 52.8089 39.5019 52.0612C39.5019 51.3097 40.0488 50.7054 40.722 50.7054H54.7822C55.4554 50.7054 56.0024 51.3136 56.0024 52.0612C56.0024 52.8128 55.4554 53.4171 54.7822 53.4171H40.722ZM80.122 28.7866H37.0234V55.0907C37.0234 55.3386 37.119 55.5555 37.2796 55.7221C37.4441 55.8848 37.6583 55.9817 37.9031 55.9817H79.227C79.4718 55.9817 79.686 55.8848 79.8504 55.7221C80.0149 55.5555 80.1067 55.3386 80.1067 55.0907V28.7866H80.122ZM75.7884 23.3863C76.6567 23.3863 77.3604 24.0992 77.3604 24.9785C77.3604 25.8579 76.6567 26.5707 75.7884 26.5707C74.9202 26.5707 74.2164 25.8579 74.2164 24.9785C74.2202 24.0992 74.924 23.3863 75.7884 23.3863ZM65.14 23.3863C66.0082 23.3863 66.712 24.0992 66.712 24.9785C66.712 25.8579 66.0082 26.5707 65.14 26.5707C64.2717 26.5707 63.568 25.8579 63.568 24.9785C63.568 24.0992 64.2717 23.3863 65.14 23.3863ZM70.4642 23.3863C71.3324 23.3863 72.0362 24.0992 72.0362 24.9785C72.0362 25.8579 71.3324 26.5707 70.4642 26.5707C69.596 26.5707 68.8922 25.8579 68.8922 24.9785C68.8922 24.0992 69.596 23.3863 70.4642 23.3863Z" fill="black"/>
</g>
<defs>
<filter id="filter0_d_36_4" x="13.75" y="0.5" width="140.75" height="100.506" filterUnits="userSpaceOnUse" color-interpolation-filters="sRGB">
<feFlood flood-opacity="0" result="BackgroundImageFix"/>
<feColorMatrix in="SourceAlpha" type="matrix" values="0 0 0 0 0 0 0 0 0 0 0 0 0 0 0 0 0 0 127 0" result="hardAlpha"/>
<feOffset dy="4"/>
<feGaussianBlur stdDeviation="2"/>
<feComposite in2="hardAlpha" operator="out"/>
<feColorMatrix type="matrix" values="0 0 0 0 0 0 0 0 0 0 0 0 0 0 0 0 0 0 0.25 0"/>
<feBlend mode="normal" in2="BackgroundImageFix" result="effect1_dropShadow_36_4"/>
<feBlend mode="normal" in="SourceGraphic" in2="effect1_dropShadow_36_4" result="shape"/>
</filter>
<filter id="filter1_d_36_4" x="51.2002" y="63.0035" width="69.9351" height="19.5045" filterUnits="userSpaceOnUse" color-interpolation-filters="sRGB">
<feFlood flood-opacity="0" result="BackgroundImageFix"/>
<feColorMatrix in="SourceAlpha" type="matrix" values="0 0 0 0 0 0 0 0 0 0 0 0 0 0 0 0 0 0 127 0" result="hardAlpha"/>
<feOffset dy="1"/>
<feGaussianBlur stdDeviation="2"/>
<feComposite in2="hardAlpha" operator="out"/>
<feColorMatrix type="matrix" values="0 0 0 0 0 0 0 0 0 0 0 0 0 0 0 0 0 0 0.25 0"/>
<feBlend mode="normal" in2="BackgroundImageFix" result="effect1_dropShadow_36_4"/>
<feBlend mode="normal" in="SourceGraphic" in2="effect1_dropShadow_36_4" result="shape"/>
</filter>
<filter id="filter2_d_36_4" x="88.7817" y="22.8" width="42.9175" height="37.2" filterUnits="userSpaceOnUse" color-interpolation-filters="sRGB">
<feFlood flood-opacity="0" result="BackgroundImageFix"/>
<feColorMatrix in="SourceAlpha" type="matrix" values="0 0 0 0 0 0 0 0 0 0 0 0 0 0 0 0 0 0 127 0" result="hardAlpha"/>
<feOffset dy="1"/>
<feGaussianBlur stdDeviation="2"/>
<feComposite in2="hardAlpha" operator="out"/>
<feColorMatrix type="matrix" values="0 0 0 0 0 0 0 0 0 0 0 0 0 0 0 0 0 0 0.25 0"/>
<feBlend mode="normal" in2="BackgroundImageFix" result="effect1_dropShadow_36_4"/>
<feBlend mode="normal" in="SourceGraphic" in2="effect1_dropShadow_36_4" result="shape"/>
</filter>
<clipPath id="clip0_36_4">
<rect width="47" height="37" fill="white" transform="translate(35 21)"/>
</clipPath>
</defs>
</svg>
