<svg width="169" height="107" viewBox="0 0 169 107" fill="none" xmlns="http://www.w3.org/2000/svg">
<g filter="url(#filter0_d_36_5)">
<path d="M148.896 12.5225C149.198 7.90846 145.537 4 140.913 4H31C26.5817 4 23 7.58172 23 12V82.2185C23 86.6368 26.5817 90.2185 31 90.2185H131.98C133.02 90.2185 134.05 90.4212 135.012 90.8151L145.376 95.0591C148.766 96.4471 152.083 92.9274 150.497 89.6256L145.556 79.3372C144.96 78.097 144.694 76.7241 144.784 75.3511L148.896 12.5225Z" fill="white"/>
<path d="M148.896 12.5225C149.198 7.90846 145.537 4 140.913 4H31C26.5817 4 23 7.58172 23 12V82.2185C23 86.6368 26.5817 90.2185 31 90.2185H131.98C133.02 90.2185 134.05 90.4212 135.012 90.8151L145.376 95.0591C148.766 96.4471 152.083 92.9274 150.497 89.6256L145.556 79.3372C144.96 78.097 144.694 76.7241 144.784 75.3511L148.896 12.5225Z" stroke="#FF6500" stroke-width="7"/>
</g>
<g filter="url(#filter1_d_36_5)">
<path d="M99.9306 41.445H93.8406V47.675H88.1706V41.445H82.0806V36.09H88.1706V29.825H93.8406V36.09H99.9306V41.445ZM102.938 31.015V25.45H112.633V51H106.403V31.015H102.938ZM116.727 37.875C116.727 33.8617 117.497 30.7 119.037 28.39C120.601 26.08 123.109 24.925 126.562 24.925C130.016 24.925 132.512 26.08 134.052 28.39C135.616 30.7 136.397 33.8617 136.397 37.875C136.397 41.935 135.616 45.12 134.052 47.43C132.512 49.74 130.016 50.895 126.562 50.895C123.109 50.895 120.601 49.74 119.037 47.43C117.497 45.12 116.727 41.935 116.727 37.875ZM130.517 37.875C130.517 35.5183 130.261 33.71 129.747 32.45C129.234 31.1667 128.172 30.525 126.562 30.525C124.952 30.525 123.891 31.1667 123.377 32.45C122.864 33.71 122.607 35.5183 122.607 37.875C122.607 39.4617 122.701 40.78 122.887 41.83C123.074 42.8567 123.447 43.6967 124.007 44.35C124.591 44.98 125.442 45.295 126.562 45.295C127.682 45.295 128.522 44.98 129.082 44.35C129.666 43.6967 130.051 42.8567 130.237 41.83C130.424 40.78 130.517 39.4617 130.517 37.875Z" fill="black"/>
</g>
<g filter="url(#filter2_d_36_5)">
<path d="M37.3879 70.12C37.2279 69.8267 37.0079 69.6033 36.7279 69.45C36.4479 69.2967 36.1212 69.22 35.7479 69.22C35.3346 69.22 34.9679 69.3133 34.6479 69.5C34.3279 69.6867 34.0779 69.9533 33.8979 70.3C33.7179 70.6467 33.6279 71.0467 33.6279 71.5C33.6279 71.9667 33.7179 72.3733 33.8979 72.72C34.0846 73.0667 34.3412 73.3333 34.6679 73.52C34.9946 73.7067 35.3746 73.8 35.8079 73.8C36.3412 73.8 36.7779 73.66 37.1179 73.38C37.4579 73.0933 37.6812 72.6967 37.7879 72.19H35.3879V71.12H39.1679V72.34C39.0746 72.8267 38.8746 73.2767 38.5679 73.69C38.2612 74.1033 37.8646 74.4367 37.3779 74.69C36.8979 74.9367 36.3579 75.06 35.7579 75.06C35.0846 75.06 34.4746 74.91 33.9279 74.61C33.3879 74.3033 32.9612 73.88 32.6479 73.34C32.3412 72.8 32.1879 72.1867 32.1879 71.5C32.1879 70.8133 32.3412 70.2 32.6479 69.66C32.9612 69.1133 33.3879 68.69 33.9279 68.39C34.4746 68.0833 35.0812 67.93 35.7479 67.93C36.5346 67.93 37.2179 68.1233 37.7979 68.51C38.3779 68.89 38.7779 69.4267 38.9979 70.12H37.3879ZM40.9137 68.8C40.667 68.8 40.4603 68.7233 40.2937 68.57C40.1337 68.41 40.0537 68.2133 40.0537 67.98C40.0537 67.7467 40.1337 67.5533 40.2937 67.4C40.4603 67.24 40.667 67.16 40.9137 67.16C41.1603 67.16 41.3637 67.24 41.5237 67.4C41.6903 67.5533 41.7737 67.7467 41.7737 67.98C41.7737 68.2133 41.6903 68.41 41.5237 68.57C41.3637 68.7233 41.1603 68.8 40.9137 68.8ZM41.6037 69.46V75H40.2037V69.46H41.6037ZM44.6169 70.61V73.29C44.6169 73.4767 44.6602 73.6133 44.7469 73.7C44.8402 73.78 44.9935 73.82 45.2069 73.82H45.8569V75H44.9769C43.7969 75 43.2069 74.4267 43.2069 73.28V70.61H42.5469V69.46H43.2069V68.09H44.6169V69.46H45.8569V70.61H44.6169ZM55.0366 68.02V75H53.6366V72.03H50.6466V75H49.2466V68.02H50.6466V70.89H53.6366V68.02H55.0366ZM61.6446 69.46V75H60.2346V74.3C60.0546 74.54 59.8179 74.73 59.5246 74.87C59.2379 75.0033 58.9246 75.07 58.5846 75.07C58.1513 75.07 57.7679 74.98 57.4346 74.8C57.1013 74.6133 56.8379 74.3433 56.6446 73.99C56.4579 73.63 56.3646 73.2033 56.3646 72.71V69.46H57.7646V72.51C57.7646 72.95 57.8746 73.29 58.0946 73.53C58.3146 73.7633 58.6146 73.88 58.9946 73.88C59.3813 73.88 59.6846 73.7633 59.9046 73.53C60.1246 73.29 60.2346 72.95 60.2346 72.51V69.46H61.6446ZM64.4259 70.27C64.6059 70.0033 64.8526 69.7867 65.1659 69.62C65.4859 69.4533 65.8493 69.37 66.2559 69.37C66.7293 69.37 67.1559 69.4867 67.5359 69.72C67.9226 69.9533 68.2259 70.2867 68.4459 70.72C68.6726 71.1467 68.7859 71.6433 68.7859 72.21C68.7859 72.7767 68.6726 73.28 68.4459 73.72C68.2259 74.1533 67.9226 74.49 67.5359 74.73C67.1559 74.97 66.7293 75.09 66.2559 75.09C65.8426 75.09 65.4793 75.01 65.1659 74.85C64.8593 74.6833 64.6126 74.47 64.4259 74.21V75H63.0259V67.6H64.4259V70.27ZM67.3559 72.21C67.3559 71.8767 67.2859 71.59 67.1459 71.35C67.0126 71.1033 66.8326 70.9167 66.6059 70.79C66.3859 70.6633 66.1459 70.6 65.8859 70.6C65.6326 70.6 65.3926 70.6667 65.1659 70.8C64.9459 70.9267 64.7659 71.1133 64.6259 71.36C64.4926 71.6067 64.4259 71.8967 64.4259 72.23C64.4259 72.5633 64.4926 72.8533 64.6259 73.1C64.7659 73.3467 64.9459 73.5367 65.1659 73.67C65.3926 73.7967 65.6326 73.86 65.8859 73.86C66.1459 73.86 66.3859 73.7933 66.6059 73.66C66.8326 73.5267 67.0126 73.3367 67.1459 73.09C67.2859 72.8433 67.3559 72.55 67.3559 72.21ZM75.7861 75L74.2461 72.28H73.5861V75H72.1861V68.02H74.8061C75.3461 68.02 75.8061 68.1167 76.1861 68.31C76.5661 68.4967 76.8494 68.7533 77.0361 69.08C77.2294 69.4 77.3261 69.76 77.3261 70.16C77.3261 70.62 77.1928 71.0367 76.9261 71.41C76.6594 71.7767 76.2628 72.03 75.7361 72.17L77.4061 75H75.7861ZM73.5861 71.23H74.7561C75.1361 71.23 75.4194 71.14 75.6061 70.96C75.7928 70.7733 75.8861 70.5167 75.8861 70.19C75.8861 69.87 75.7928 69.6233 75.6061 69.45C75.4194 69.27 75.1361 69.18 74.7561 69.18H73.5861V71.23ZM83.7423 72.11C83.7423 72.31 83.729 72.49 83.7023 72.65H79.6523C79.6857 73.05 79.8257 73.3633 80.0723 73.59C80.319 73.8167 80.6223 73.93 80.9823 73.93C81.5023 73.93 81.8723 73.7067 82.0923 73.26H83.6023C83.4423 73.7933 83.1357 74.2333 82.6823 74.58C82.229 74.92 81.6723 75.09 81.0123 75.09C80.479 75.09 79.999 74.9733 79.5723 74.74C79.1523 74.5 78.8223 74.1633 78.5823 73.73C78.349 73.2967 78.2323 72.7967 78.2323 72.23C78.2323 71.6567 78.349 71.1533 78.5823 70.72C78.8157 70.2867 79.1423 69.9533 79.5623 69.72C79.9823 69.4867 80.4657 69.37 81.0123 69.37C81.539 69.37 82.009 69.4833 82.4223 69.71C82.8423 69.9367 83.1657 70.26 83.3923 70.68C83.6257 71.0933 83.7423 71.57 83.7423 72.11ZM82.2923 71.71C82.2857 71.35 82.1557 71.0633 81.9023 70.85C81.649 70.63 81.339 70.52 80.9723 70.52C80.6257 70.52 80.3323 70.6267 80.0923 70.84C79.859 71.0467 79.7157 71.3367 79.6623 71.71H82.2923ZM86.1642 70.26C86.3442 70.0067 86.5909 69.7967 86.9042 69.63C87.2242 69.4567 87.5876 69.37 87.9942 69.37C88.4676 69.37 88.8942 69.4867 89.2742 69.72C89.6609 69.9533 89.9642 70.2867 90.1842 70.72C90.4109 71.1467 90.5242 71.6433 90.5242 72.21C90.5242 72.7767 90.4109 73.28 90.1842 73.72C89.9642 74.1533 89.6609 74.49 89.2742 74.73C88.8942 74.97 88.4676 75.09 87.9942 75.09C87.5876 75.09 87.2276 75.0067 86.9142 74.84C86.6076 74.6733 86.3576 74.4633 86.1642 74.21V77.64H84.7642V69.46H86.1642V70.26ZM89.0942 72.21C89.0942 71.8767 89.0242 71.59 88.8842 71.35C88.7509 71.1033 88.5709 70.9167 88.3442 70.79C88.1242 70.6633 87.8842 70.6 87.6242 70.6C87.3709 70.6 87.1309 70.6667 86.9042 70.8C86.6842 70.9267 86.5042 71.1133 86.3642 71.36C86.2309 71.6067 86.1642 71.8967 86.1642 72.23C86.1642 72.5633 86.2309 72.8533 86.3642 73.1C86.5042 73.3467 86.6842 73.5367 86.9042 73.67C87.1309 73.7967 87.3709 73.86 87.6242 73.86C87.8842 73.86 88.1242 73.7933 88.3442 73.66C88.5709 73.5267 88.7509 73.3367 88.8842 73.09C89.0242 72.8433 89.0942 72.55 89.0942 72.21ZM94.0016 75.09C93.4682 75.09 92.9882 74.9733 92.5616 74.74C92.1349 74.5 91.7982 74.1633 91.5516 73.73C91.3116 73.2967 91.1916 72.7967 91.1916 72.23C91.1916 71.6633 91.3149 71.1633 91.5616 70.73C91.8149 70.2967 92.1582 69.9633 92.5916 69.73C93.0249 69.49 93.5082 69.37 94.0416 69.37C94.5749 69.37 95.0582 69.49 95.4916 69.73C95.9249 69.9633 96.2649 70.2967 96.5116 70.73C96.7649 71.1633 96.8916 71.6633 96.8916 72.23C96.8916 72.7967 96.7616 73.2967 96.5016 73.73C96.2482 74.1633 95.9016 74.5 95.4616 74.74C95.0282 74.9733 94.5416 75.09 94.0016 75.09ZM94.0016 73.87C94.2549 73.87 94.4916 73.81 94.7116 73.69C94.9382 73.5633 95.1182 73.3767 95.2516 73.13C95.3849 72.8833 95.4516 72.5833 95.4516 72.23C95.4516 71.7033 95.3116 71.3 95.0316 71.02C94.7582 70.7333 94.4216 70.59 94.0216 70.59C93.6216 70.59 93.2849 70.7333 93.0116 71.02C92.7449 71.3 92.6116 71.7033 92.6116 72.23C92.6116 72.7567 92.7416 73.1633 93.0016 73.45C93.2682 73.73 93.6016 73.87 94.0016 73.87ZM100.039 75.09C99.5852 75.09 99.1785 75.01 98.8185 74.85C98.4585 74.6833 98.1718 74.46 97.9585 74.18C97.7518 73.9 97.6385 73.59 97.6185 73.25H99.0285C99.0552 73.4633 99.1585 73.64 99.3385 73.78C99.5252 73.92 99.7552 73.99 100.029 73.99C100.295 73.99 100.502 73.9367 100.649 73.83C100.802 73.7233 100.879 73.5867 100.879 73.42C100.879 73.24 100.785 73.1067 100.599 73.02C100.419 72.9267 100.129 72.8267 99.7285 72.72C99.3152 72.62 98.9752 72.5167 98.7085 72.41C98.4485 72.3033 98.2218 72.14 98.0285 71.92C97.8418 71.7 97.7485 71.4033 97.7485 71.03C97.7485 70.7233 97.8352 70.4433 98.0085 70.19C98.1885 69.9367 98.4418 69.7367 98.7685 69.59C99.1018 69.4433 99.4918 69.37 99.9385 69.37C100.599 69.37 101.125 69.5367 101.519 69.87C101.912 70.1967 102.129 70.64 102.169 71.2H100.829C100.809 70.98 100.715 70.8067 100.549 70.68C100.389 70.5467 100.172 70.48 99.8985 70.48C99.6452 70.48 99.4485 70.5267 99.3085 70.62C99.1752 70.7133 99.1085 70.8433 99.1085 71.01C99.1085 71.1967 99.2018 71.34 99.3885 71.44C99.5752 71.5333 99.8652 71.63 100.259 71.73C100.659 71.83 100.989 71.9333 101.249 72.04C101.509 72.1467 101.732 72.3133 101.919 72.54C102.112 72.76 102.212 73.0533 102.219 73.42C102.219 73.74 102.129 74.0267 101.949 74.28C101.775 74.5333 101.522 74.7333 101.189 74.88C100.862 75.02 100.479 75.09 100.039 75.09ZM104.078 68.8C103.831 68.8 103.624 68.7233 103.458 68.57C103.298 68.41 103.218 68.2133 103.218 67.98C103.218 67.7467 103.298 67.5533 103.458 67.4C103.624 67.24 103.831 67.16 104.078 67.16C104.324 67.16 104.528 67.24 104.688 67.4C104.854 67.5533 104.938 67.7467 104.938 67.98C104.938 68.2133 104.854 68.41 104.688 68.57C104.528 68.7233 104.324 68.8 104.078 68.8ZM104.768 69.46V75H103.368V69.46H104.768ZM107.781 70.61V73.29C107.781 73.4767 107.824 73.6133 107.911 73.7C108.004 73.78 108.158 73.82 108.371 73.82H109.021V75H108.141C106.961 75 106.371 74.4267 106.371 73.28V70.61H105.711V69.46H106.371V68.09H107.781V69.46H109.021V70.61H107.781ZM112.488 75.09C111.955 75.09 111.475 74.9733 111.048 74.74C110.621 74.5 110.285 74.1633 110.038 73.73C109.798 73.2967 109.678 72.7967 109.678 72.23C109.678 71.6633 109.801 71.1633 110.048 70.73C110.301 70.2967 110.645 69.9633 111.078 69.73C111.511 69.49 111.995 69.37 112.528 69.37C113.061 69.37 113.545 69.49 113.978 69.73C114.411 69.9633 114.751 70.2967 114.998 70.73C115.251 71.1633 115.378 71.6633 115.378 72.23C115.378 72.7967 115.248 73.2967 114.988 73.73C114.735 74.1633 114.388 74.5 113.948 74.74C113.515 74.9733 113.028 75.09 112.488 75.09ZM112.488 73.87C112.741 73.87 112.978 73.81 113.198 73.69C113.425 73.5633 113.605 73.3767 113.738 73.13C113.871 72.8833 113.938 72.5833 113.938 72.23C113.938 71.7033 113.798 71.3 113.518 71.02C113.245 70.7333 112.908 70.59 112.508 70.59C112.108 70.59 111.771 70.7333 111.498 71.02C111.231 71.3 111.098 71.7033 111.098 72.23C111.098 72.7567 111.228 73.1633 111.488 73.45C111.755 73.73 112.088 73.87 112.488 73.87ZM117.805 70.32C117.985 70.0267 118.218 69.7967 118.505 69.63C118.798 69.4633 119.132 69.38 119.505 69.38V70.85H119.135C118.695 70.85 118.362 70.9533 118.135 71.16C117.915 71.3667 117.805 71.7267 117.805 72.24V75H116.405V69.46H117.805V70.32ZM121.158 68.8C120.911 68.8 120.704 68.7233 120.538 68.57C120.378 68.41 120.298 68.2133 120.298 67.98C120.298 67.7467 120.378 67.5533 120.538 67.4C120.704 67.24 120.911 67.16 121.158 67.16C121.404 67.16 121.608 67.24 121.768 67.4C121.934 67.5533 122.018 67.7467 122.018 67.98C122.018 68.2133 121.934 68.41 121.768 68.57C121.608 68.7233 121.404 68.8 121.158 68.8ZM121.848 69.46V75H120.448V69.46H121.848ZM128.381 72.11C128.381 72.31 128.368 72.49 128.341 72.65H124.291C124.324 73.05 124.464 73.3633 124.711 73.59C124.958 73.8167 125.261 73.93 125.621 73.93C126.141 73.93 126.511 73.7067 126.731 73.26H128.241C128.081 73.7933 127.774 74.2333 127.321 74.58C126.868 74.92 126.311 75.09 125.651 75.09C125.118 75.09 124.638 74.9733 124.211 74.74C123.791 74.5 123.461 74.1633 123.221 73.73C122.988 73.2967 122.871 72.7967 122.871 72.23C122.871 71.6567 122.988 71.1533 123.221 70.72C123.454 70.2867 123.781 69.9533 124.201 69.72C124.621 69.4867 125.104 69.37 125.651 69.37C126.178 69.37 126.648 69.4833 127.061 69.71C127.481 69.9367 127.804 70.26 128.031 70.68C128.264 71.0933 128.381 71.57 128.381 72.11ZM126.931 71.71C126.924 71.35 126.794 71.0633 126.541 70.85C126.288 70.63 125.978 70.52 125.611 70.52C125.264 70.52 124.971 70.6267 124.731 70.84C124.498 71.0467 124.354 71.3367 124.301 71.71H126.931ZM131.523 75.09C131.07 75.09 130.663 75.01 130.303 74.85C129.943 74.6833 129.656 74.46 129.443 74.18C129.236 73.9 129.123 73.59 129.103 73.25H130.513C130.54 73.4633 130.643 73.64 130.823 73.78C131.01 73.92 131.24 73.99 131.513 73.99C131.78 73.99 131.986 73.9367 132.133 73.83C132.286 73.7233 132.363 73.5867 132.363 73.42C132.363 73.24 132.27 73.1067 132.083 73.02C131.903 72.9267 131.613 72.8267 131.213 72.72C130.8 72.62 130.46 72.5167 130.193 72.41C129.933 72.3033 129.706 72.14 129.513 71.92C129.326 71.7 129.233 71.4033 129.233 71.03C129.233 70.7233 129.32 70.4433 129.493 70.19C129.673 69.9367 129.926 69.7367 130.253 69.59C130.586 69.4433 130.976 69.37 131.423 69.37C132.083 69.37 132.61 69.5367 133.003 69.87C133.396 70.1967 133.613 70.64 133.653 71.2H132.313C132.293 70.98 132.2 70.8067 132.033 70.68C131.873 70.5467 131.656 70.48 131.383 70.48C131.13 70.48 130.933 70.5267 130.793 70.62C130.66 70.7133 130.593 70.8433 130.593 71.01C130.593 71.1967 130.686 71.34 130.873 71.44C131.06 71.5333 131.35 71.63 131.743 71.73C132.143 71.83 132.473 71.9333 132.733 72.04C132.993 72.1467 133.216 72.3133 133.403 72.54C133.596 72.76 133.696 73.0533 133.703 73.42C133.703 73.74 133.613 74.0267 133.433 74.28C133.26 74.5333 133.006 74.7333 132.673 74.88C132.346 75.02 131.963 75.09 131.523 75.09Z" fill="black" fill-opacity="0.5" shape-rendering="crispEdges"/>
</g>
<g clip-path="url(#clip0_36_5)">
<path fill-rule="evenodd" clip-rule="evenodd" d="M55.0165 18C43.9479 18 35 27.0139 35 38.1653C35 47.0792 40.7332 54.6246 48.6868 57.2952C49.6812 57.496 50.0454 56.8613 50.0454 56.3274C50.0454 55.8599 50.0126 54.2575 50.0126 52.5879C44.4445 53.79 43.285 50.1841 43.285 50.1841C42.3902 47.847 41.0643 47.2463 41.0643 47.2463C39.2418 46.011 41.197 46.011 41.197 46.011C43.2186 46.1446 44.2794 48.081 44.2794 48.081C46.0686 51.1522 48.9518 50.2844 50.1118 49.7502C50.2773 48.4481 50.8079 47.5467 51.3713 47.046C46.9303 46.5785 42.2578 44.8425 42.2578 37.0967C42.2578 34.8932 43.0527 33.0905 44.3122 31.6884C44.1134 31.1877 43.4173 29.1174 44.5113 26.3464C44.5113 26.3464 46.2014 25.8122 50.0122 28.4164C51.6438 27.9749 53.3263 27.7504 55.0165 27.7485C56.7067 27.7485 58.4295 27.9825 60.0205 28.4164C63.8317 25.8122 65.5218 26.3464 65.5218 26.3464C66.6158 29.1174 65.9192 31.1877 65.7205 31.6884C67.0132 33.0905 67.7753 34.8932 67.7753 37.0967C67.7753 44.8425 63.1028 46.5449 58.6287 47.046C59.358 47.6802 59.9873 48.882 59.9873 50.7851C59.9873 53.4893 59.9545 55.6596 59.9545 56.327C59.9545 56.8613 60.3192 57.496 61.3132 57.2956C69.2667 54.6242 74.9999 47.0792 74.9999 38.1653C75.0327 27.0139 66.052 18 55.0165 18Z" fill="#24292F"/>
</g>
<defs>
<filter id="filter0_d_36_5" x="15.5" y="0.5" width="142.917" height="106.381" filterUnits="userSpaceOnUse" color-interpolation-filters="sRGB">
<feFlood flood-opacity="0" result="BackgroundImageFix"/>
<feColorMatrix in="SourceAlpha" type="matrix" values="0 0 0 0 0 0 0 0 0 0 0 0 0 0 0 0 0 0 127 0" result="hardAlpha"/>
<feOffset dy="4"/>
<feGaussianBlur stdDeviation="2"/>
<feComposite in2="hardAlpha" operator="out"/>
<feColorMatrix type="matrix" values="0 0 0 0 0 0 0 0 0 0 0 0 0 0 0 0 0 0 0.25 0"/>
<feBlend mode="normal" in2="BackgroundImageFix" result="effect1_dropShadow_36_5"/>
<feBlend mode="normal" in="SourceGraphic" in2="effect1_dropShadow_36_5" result="shape"/>
</filter>
<filter id="filter1_d_36_5" x="78.0806" y="21.925" width="62.3169" height="34.075" filterUnits="userSpaceOnUse" color-interpolation-filters="sRGB">
<feFlood flood-opacity="0" result="BackgroundImageFix"/>
<feColorMatrix in="SourceAlpha" type="matrix" values="0 0 0 0 0 0 0 0 0 0 0 0 0 0 0 0 0 0 127 0" result="hardAlpha"/>
<feOffset dy="1"/>
<feGaussianBlur stdDeviation="2"/>
<feComposite in2="hardAlpha" operator="out"/>
<feColorMatrix type="matrix" values="0 0 0 0 0 0 0 0 0 0 0 0 0 0 0 0 0 0 0.25 0"/>
<feBlend mode="normal" in2="BackgroundImageFix" result="effect1_dropShadow_36_5"/>
<feBlend mode="normal" in="SourceGraphic" in2="effect1_dropShadow_36_5" result="shape"/>
</filter>
<filter id="filter2_d_36_5" x="28.188" y="64.16" width="109.515" height="18.48" filterUnits="userSpaceOnUse" color-interpolation-filters="sRGB">
<feFlood flood-opacity="0" result="BackgroundImageFix"/>
<feColorMatrix in="SourceAlpha" type="matrix" values="0 0 0 0 0 0 0 0 0 0 0 0 0 0 0 0 0 0 127 0" result="hardAlpha"/>
<feOffset dy="1"/>
<feGaussianBlur stdDeviation="2"/>
<feComposite in2="hardAlpha" operator="out"/>
<feColorMatrix type="matrix" values="0 0 0 0 0 0 0 0 0 0 0 0 0 0 0 0 0 0 0.25 0"/>
<feBlend mode="normal" in2="BackgroundImageFix" result="effect1_dropShadow_36_5"/>
<feBlend mode="normal" in="SourceGraphic" in2="effect1_dropShadow_36_5" result="shape"/>
</filter>
<clipPath id="clip0_36_5">
<rect width="40" height="40" fill="white" transform="translate(35 18)"/>
</clipPath>
</defs>
</svg>
