<svg width="553" height="62" viewBox="0 0 553 62" fill="none" xmlns="http://www.w3.org/2000/svg">
<g filter="url(#filter0_d_7_29)">
<path d="M510.254 58C505.269 58 500.636 57.2869 496.355 55.8607C492.133 54.4344 488.468 52.4271 485.359 49.8388C482.251 47.1976 479.818 44.1075 478.058 40.5683C476.358 37.0291 475.507 33.173 475.507 29C475.507 24.7741 476.358 20.918 478.058 17.4317C479.818 13.8925 482.251 10.8288 485.359 8.24044C488.468 5.59927 492.133 3.56557 496.355 2.13935C500.636 0.713116 505.269 0 510.254 0C515.297 0 519.93 0.713116 524.152 2.13935C528.375 3.56557 532.04 5.59927 535.148 8.24044C538.256 10.8288 540.66 13.8925 542.361 17.4317C544.12 20.918 545 24.7741 545 29C545 33.173 544.12 37.0291 542.361 40.5683C540.66 44.1075 538.256 47.1976 535.148 49.8388C532.04 52.4271 528.375 54.4344 524.152 55.8607C519.93 57.2869 515.297 58 510.254 58ZM510.254 42.8661C512.189 42.8661 513.978 42.5492 515.62 41.9153C517.32 41.2814 518.786 40.3834 520.018 39.2213C521.308 38.0064 522.305 36.5537 523.009 34.8634C523.712 33.1202 524.064 31.1658 524.064 29C524.064 26.8342 523.712 24.9062 523.009 23.2158C522.305 21.4727 521.308 20.02 520.018 18.8579C518.786 17.643 517.32 16.7186 515.62 16.0847C513.978 15.4508 512.189 15.1339 510.254 15.1339C508.318 15.1339 506.5 15.4508 504.8 16.0847C503.158 16.7186 501.692 17.643 500.402 18.8579C499.17 20.02 498.202 21.4727 497.499 23.2158C496.795 24.9062 496.443 26.8342 496.443 29C496.443 31.1658 496.795 33.1202 497.499 34.8634C498.202 36.5537 499.17 38.0064 500.402 39.2213C501.692 40.3834 503.158 41.2814 504.8 41.9153C506.5 42.5492 508.318 42.8661 510.254 42.8661Z" fill="black"/>
</g>
<g filter="url(#filter1_d_7_29)">
<path d="M447.215 56.7323V1.26782H467.975V56.7323H447.215Z" fill="black"/>
</g>
<g filter="url(#filter2_d_7_29)">
<path d="M392.923 56.7323V1.26782H413.683V42.2323H441.48V56.7323H392.923Z" fill="black"/>
</g>
<g filter="url(#filter3_d_7_29)">
<path d="M350.644 58C345.659 58 341.026 57.2869 336.745 55.8607C332.523 54.4344 328.858 52.4271 325.75 49.8388C322.641 47.1976 320.208 44.1075 318.448 40.5683C316.748 37.0291 315.897 33.173 315.897 29C315.897 24.7741 316.748 20.918 318.448 17.4317C320.208 13.8925 322.641 10.8288 325.75 8.24044C328.858 5.59927 332.523 3.56557 336.745 2.13935C341.026 0.713116 345.659 0 350.644 0C355.687 0 360.32 0.713116 364.542 2.13935C368.765 3.56557 372.43 5.59927 375.538 8.24044C378.646 10.8288 381.051 13.8925 382.751 17.4317C384.511 20.918 385.39 24.7741 385.39 29C385.39 33.173 384.511 37.0291 382.751 40.5683C381.051 44.1075 378.646 47.1976 375.538 49.8388C372.43 52.4271 368.765 54.4344 364.542 55.8607C360.32 57.2869 355.687 58 350.644 58ZM350.644 42.8661C352.579 42.8661 354.368 42.5492 356.01 41.9153C357.71 41.2814 359.176 40.3834 360.408 39.2213C361.698 38.0064 362.695 36.5537 363.399 34.8634C364.103 33.1202 364.454 31.1658 364.454 29C364.454 26.8342 364.103 24.9062 363.399 23.2158C362.695 21.4727 361.698 20.02 360.408 18.8579C359.176 17.643 357.71 16.7186 356.01 16.0847C354.368 15.4508 352.579 15.1339 350.644 15.1339C348.709 15.1339 346.891 15.4508 345.19 16.0847C343.548 16.7186 342.082 17.643 340.792 18.8579C339.56 20.02 338.593 21.4727 337.889 23.2158C337.185 24.9062 336.833 26.8342 336.833 29C336.833 31.1658 337.185 33.1202 337.889 34.8634C338.593 36.5537 339.56 38.0064 340.792 39.2213C342.082 40.3834 343.548 41.2814 345.19 41.9153C346.891 42.5492 348.709 42.8661 350.644 42.8661Z" fill="black"/>
</g>
<g filter="url(#filter4_d_7_29)">
<path d="M281.531 24.8798H308.624V38.9837H281.531V24.8798ZM282.938 56.7323H262.178V1.26782H312.231V15.3716H282.938V56.7323Z" fill="black"/>
</g>
<g filter="url(#filter5_d_7_29)">
<path d="M217.993 56.7323V15.7678H199.96V1.26782H256.786V15.7678H238.753V56.7323H217.993Z" fill="black"/>
</g>
<g filter="url(#filter6_d_7_29)">
<path d="M139.938 56.7323V1.26782H169.583C175.33 1.26782 180.285 2.113 184.449 3.80334C188.671 5.49369 191.926 7.92356 194.213 11.093C196.5 14.2095 197.644 17.9072 197.644 22.1859C197.644 26.4645 196.5 30.1622 194.213 33.2788C191.926 36.3425 188.671 38.6931 184.449 40.3307C180.285 41.9682 175.33 42.7869 169.583 42.7869H151.462L160.698 35.1012V56.7323H139.938ZM176.796 56.7323L161.666 36.5274H183.657L198.963 56.7323H176.796ZM160.698 37.1613L151.462 28.6831H168.263C171.137 28.6831 173.248 28.1021 174.597 26.94C176.004 25.7778 176.708 24.1931 176.708 22.1859C176.708 20.1786 176.004 18.5939 174.597 17.4318C173.248 16.2696 171.137 15.6886 168.263 15.6886H151.462L160.698 7.21045V37.1613Z" fill="black"/>
</g>
<g filter="url(#filter7_d_7_29)">
<path d="M97.6561 58C92.6713 58 88.0385 57.2869 83.7575 55.8607C79.5352 54.4344 75.8699 52.4271 72.7618 49.8388C69.6537 47.1976 67.22 44.1075 65.4607 40.5683C63.76 37.0291 62.9097 33.173 62.9097 29C62.9097 24.7741 63.76 20.918 65.4607 17.4317C67.22 13.8925 69.6537 10.8288 72.7618 8.24044C75.8699 5.59927 79.5352 3.56557 83.7575 2.13935C88.0385 0.713116 92.6713 0 97.6561 0C102.699 0 107.332 0.713116 111.555 2.13935C115.777 3.56557 119.442 5.59927 122.55 8.24044C125.658 10.8288 128.063 13.8925 129.763 17.4317C131.523 20.918 132.402 24.7741 132.402 29C132.402 33.173 131.523 37.0291 129.763 40.5683C128.063 44.1075 125.658 47.1976 122.55 49.8388C119.442 52.4271 115.777 54.4344 111.555 55.8607C107.332 57.2869 102.699 58 97.6561 58ZM97.6561 42.8661C99.5913 42.8661 101.38 42.5492 103.022 41.9153C104.723 41.2814 106.189 40.3834 107.42 39.2213C108.71 38.0064 109.707 36.5537 110.411 34.8634C111.115 33.1202 111.467 31.1658 111.467 29C111.467 26.8342 111.115 24.9062 110.411 23.2158C109.707 21.4727 108.71 20.02 107.42 18.8579C106.189 17.643 104.723 16.7186 103.022 16.0847C101.38 15.4508 99.5913 15.1339 97.6561 15.1339C95.7208 15.1339 93.9029 15.4508 92.2022 16.0847C90.5602 16.7186 89.0941 17.643 87.8039 18.8579C86.5724 20.02 85.6048 21.4727 84.9011 23.2158C84.1973 24.9062 83.8455 26.8342 83.8455 29C83.8455 31.1658 84.1973 33.1202 84.9011 34.8634C85.6048 36.5537 86.5724 38.0064 87.8039 39.2213C89.0941 40.3834 90.5602 41.2814 92.2022 41.9153C93.9029 42.5492 95.7208 42.8661 97.6561 42.8661Z" fill="black"/>
</g>
<g filter="url(#filter8_d_7_29)">
<path d="M0 56.7323V1.26782H29.6444C35.3915 1.26782 40.3469 2.113 44.5106 3.80334C48.7329 5.49369 51.9876 7.92356 54.2747 11.093C56.5618 14.2095 57.7054 17.9072 57.7054 22.1859C57.7054 26.4645 56.5618 30.1622 54.2747 33.2788C51.9876 36.3953 48.7329 38.8252 44.5106 40.5684C40.3469 42.2587 35.3915 43.1039 29.6444 43.1039H11.5235L20.7599 35.1012V56.7323H0ZM20.7599 37.1613L11.5235 28.6831H28.3249C31.1984 28.6831 33.3096 28.1021 34.6584 26.94C36.0659 25.7778 36.7696 24.1931 36.7696 22.1859C36.7696 20.1786 36.0659 18.5939 34.6584 17.4318C33.3096 16.2696 31.1984 15.6886 28.3249 15.6886H11.5235L20.7599 7.21045V37.1613Z" fill="black"/>
</g>
<defs>
<filter id="filter0_d_7_29" x="475.507" y="0" width="77.4927" height="62" filterUnits="userSpaceOnUse" color-interpolation-filters="sRGB">
<feFlood flood-opacity="0" result="BackgroundImageFix"/>
<feColorMatrix in="SourceAlpha" type="matrix" values="0 0 0 0 0 0 0 0 0 0 0 0 0 0 0 0 0 0 127 0" result="hardAlpha"/>
<feOffset dx="8" dy="4"/>
<feComposite in2="hardAlpha" operator="out"/>
<feColorMatrix type="matrix" values="0 0 0 0 0 0 0 0 0 0 0 0 0 0 0 0 0 0 0.25 0"/>
<feBlend mode="normal" in2="BackgroundImageFix" result="effect1_dropShadow_7_29"/>
<feBlend mode="normal" in="SourceGraphic" in2="effect1_dropShadow_7_29" result="shape"/>
</filter>
<filter id="filter1_d_7_29" x="447.215" y="1.26782" width="28.7598" height="59.4646" filterUnits="userSpaceOnUse" color-interpolation-filters="sRGB">
<feFlood flood-opacity="0" result="BackgroundImageFix"/>
<feColorMatrix in="SourceAlpha" type="matrix" values="0 0 0 0 0 0 0 0 0 0 0 0 0 0 0 0 0 0 127 0" result="hardAlpha"/>
<feOffset dx="8" dy="4"/>
<feComposite in2="hardAlpha" operator="out"/>
<feColorMatrix type="matrix" values="0 0 0 0 0 0 0 0 0 0 0 0 0 0 0 0 0 0 0.25 0"/>
<feBlend mode="normal" in2="BackgroundImageFix" result="effect1_dropShadow_7_29"/>
<feBlend mode="normal" in="SourceGraphic" in2="effect1_dropShadow_7_29" result="shape"/>
</filter>
<filter id="filter2_d_7_29" x="392.923" y="1.26782" width="56.5571" height="59.4646" filterUnits="userSpaceOnUse" color-interpolation-filters="sRGB">
<feFlood flood-opacity="0" result="BackgroundImageFix"/>
<feColorMatrix in="SourceAlpha" type="matrix" values="0 0 0 0 0 0 0 0 0 0 0 0 0 0 0 0 0 0 127 0" result="hardAlpha"/>
<feOffset dx="8" dy="4"/>
<feComposite in2="hardAlpha" operator="out"/>
<feColorMatrix type="matrix" values="0 0 0 0 0 0 0 0 0 0 0 0 0 0 0 0 0 0 0.25 0"/>
<feBlend mode="normal" in2="BackgroundImageFix" result="effect1_dropShadow_7_29"/>
<feBlend mode="normal" in="SourceGraphic" in2="effect1_dropShadow_7_29" result="shape"/>
</filter>
<filter id="filter3_d_7_29" x="315.897" y="0" width="77.4927" height="62" filterUnits="userSpaceOnUse" color-interpolation-filters="sRGB">
<feFlood flood-opacity="0" result="BackgroundImageFix"/>
<feColorMatrix in="SourceAlpha" type="matrix" values="0 0 0 0 0 0 0 0 0 0 0 0 0 0 0 0 0 0 127 0" result="hardAlpha"/>
<feOffset dx="8" dy="4"/>
<feComposite in2="hardAlpha" operator="out"/>
<feColorMatrix type="matrix" values="0 0 0 0 0 0 0 0 0 0 0 0 0 0 0 0 0 0 0.25 0"/>
<feBlend mode="normal" in2="BackgroundImageFix" result="effect1_dropShadow_7_29"/>
<feBlend mode="normal" in="SourceGraphic" in2="effect1_dropShadow_7_29" result="shape"/>
</filter>
<filter id="filter4_d_7_29" x="262.178" y="1.26782" width="58.0522" height="59.4646" filterUnits="userSpaceOnUse" color-interpolation-filters="sRGB">
<feFlood flood-opacity="0" result="BackgroundImageFix"/>
<feColorMatrix in="SourceAlpha" type="matrix" values="0 0 0 0 0 0 0 0 0 0 0 0 0 0 0 0 0 0 127 0" result="hardAlpha"/>
<feOffset dx="8" dy="4"/>
<feComposite in2="hardAlpha" operator="out"/>
<feColorMatrix type="matrix" values="0 0 0 0 0 0 0 0 0 0 0 0 0 0 0 0 0 0 0.25 0"/>
<feBlend mode="normal" in2="BackgroundImageFix" result="effect1_dropShadow_7_29"/>
<feBlend mode="normal" in="SourceGraphic" in2="effect1_dropShadow_7_29" result="shape"/>
</filter>
<filter id="filter5_d_7_29" x="199.96" y="1.26782" width="64.8257" height="59.4646" filterUnits="userSpaceOnUse" color-interpolation-filters="sRGB">
<feFlood flood-opacity="0" result="BackgroundImageFix"/>
<feColorMatrix in="SourceAlpha" type="matrix" values="0 0 0 0 0 0 0 0 0 0 0 0 0 0 0 0 0 0 127 0" result="hardAlpha"/>
<feOffset dx="8" dy="4"/>
<feComposite in2="hardAlpha" operator="out"/>
<feColorMatrix type="matrix" values="0 0 0 0 0 0 0 0 0 0 0 0 0 0 0 0 0 0 0.25 0"/>
<feBlend mode="normal" in2="BackgroundImageFix" result="effect1_dropShadow_7_29"/>
<feBlend mode="normal" in="SourceGraphic" in2="effect1_dropShadow_7_29" result="shape"/>
</filter>
<filter id="filter6_d_7_29" x="139.938" y="1.26782" width="67.0249" height="59.4646" filterUnits="userSpaceOnUse" color-interpolation-filters="sRGB">
<feFlood flood-opacity="0" result="BackgroundImageFix"/>
<feColorMatrix in="SourceAlpha" type="matrix" values="0 0 0 0 0 0 0 0 0 0 0 0 0 0 0 0 0 0 127 0" result="hardAlpha"/>
<feOffset dx="8" dy="4"/>
<feComposite in2="hardAlpha" operator="out"/>
<feColorMatrix type="matrix" values="0 0 0 0 0 0 0 0 0 0 0 0 0 0 0 0 0 0 0.25 0"/>
<feBlend mode="normal" in2="BackgroundImageFix" result="effect1_dropShadow_7_29"/>
<feBlend mode="normal" in="SourceGraphic" in2="effect1_dropShadow_7_29" result="shape"/>
</filter>
<filter id="filter7_d_7_29" x="62.9097" y="0" width="77.4927" height="62" filterUnits="userSpaceOnUse" color-interpolation-filters="sRGB">
<feFlood flood-opacity="0" result="BackgroundImageFix"/>
<feColorMatrix in="SourceAlpha" type="matrix" values="0 0 0 0 0 0 0 0 0 0 0 0 0 0 0 0 0 0 127 0" result="hardAlpha"/>
<feOffset dx="8" dy="4"/>
<feComposite in2="hardAlpha" operator="out"/>
<feColorMatrix type="matrix" values="0 0 0 0 0 0 0 0 0 0 0 0 0 0 0 0 0 0 0.25 0"/>
<feBlend mode="normal" in2="BackgroundImageFix" result="effect1_dropShadow_7_29"/>
<feBlend mode="normal" in="SourceGraphic" in2="effect1_dropShadow_7_29" result="shape"/>
</filter>
<filter id="filter8_d_7_29" x="0" y="1.26782" width="65.7056" height="59.4646" filterUnits="userSpaceOnUse" color-interpolation-filters="sRGB">
<feFlood flood-opacity="0" result="BackgroundImageFix"/>
<feColorMatrix in="SourceAlpha" type="matrix" values="0 0 0 0 0 0 0 0 0 0 0 0 0 0 0 0 0 0 127 0" result="hardAlpha"/>
<feOffset dx="8" dy="4"/>
<feComposite in2="hardAlpha" operator="out"/>
<feColorMatrix type="matrix" values="0 0 0 0 0 0 0 0 0 0 0 0 0 0 0 0 0 0 0.25 0"/>
<feBlend mode="normal" in2="BackgroundImageFix" result="effect1_dropShadow_7_29"/>
<feBlend mode="normal" in="SourceGraphic" in2="effect1_dropShadow_7_29" result="shape"/>
</filter>
</defs>
</svg>
